# xmcd
#
# Track frame offsets:
#	150
#	24578
#	56034
#	73220
#	96884
#	114835
#	131618
#	151728
#	170447
#	186045
#	199877
#	218844
#	234384
#	251948
#
# Disc length: 3537
#
# Revision: 2
# Processed by: cddbd v1.5.1PL0 Copyright (c) Steve Scherf et al.
# Submitted via: audiograbber 1.81.03
# Normalized: r1:DSETVAR1
#
DISCID=c50dcf0e
DTITLE=Various Artist - Love Music Club Vol. 3
DYEAR=1900
DGENRE=Rock
TTITLE0=Paul Young - Everytime you go away
TTITLE1=Bonnie Tyler - Total Eclipse of the heart
TTITLE2=Cyndy Lauper - True Colors
TTITLE3=Daryll Hall - I'm in a philly moodTraccia  4
TTITLE4=Gloria Estefan - Can't stay away from you
TTITLE5=Gladys Knight and The Pips - Wind benath my wind
TTITLE6=Manhattans - Kiss and say goodby
TTITLE7=Will to power - Baby I love your way
TTITLE8=H. Melvin and The blues notes - If you don't know me by now
TTITLE9=Johnny Mathis and Nathallie Cole - When I fall in love
TTITLE10=K.C. and Sunshine Band - Don't say no
TTITLE11=Kansas - Dust in the wind
TTITLE12=Gipsy kings - A mi manera
TTITLE13=Roy Orbison - Oh pretty woman
EXTD=
EXTT0=
EXTT1=
EXTT2=
EXTT3=
EXTT4=
EXTT5=
EXTT6=
EXTT7=
EXTT8=
EXTT9=
EXTT10=
EXTT11=
EXTT12=
EXTT13=
PLAYORDER=
